<svg width="21" height="18" viewBox="0 0 21 18" fill="none" xmlns="http://www.w3.org/2000/svg">
<path d="M6.44946 3.53418L7.10571 1.56543C7.32446 0.87793 7.79321 0.53418 8.51196 0.53418H12.0745C12.7932 0.53418 13.262 0.87793 13.4807 1.56543L14.137 3.53418H17.6995C18.1682 3.53418 18.5979 3.65137 18.9885 3.88574C19.3792 4.12012 19.6917 4.44043 19.926 4.84668C20.1604 5.25293 20.2776 5.70605 20.2776 6.20605V14.0342C20.2776 15.0029 19.9417 15.8311 19.2698 16.5186C18.5979 17.2061 17.7776 17.5498 16.8088 17.5498H3.77759C2.80884 17.5498 1.98853 17.2061 1.31665 16.5186C0.644775 15.8311 0.308838 15.0029 0.308838 14.0342V10.0498C0.308838 9.9248 0.355713 9.80762 0.449463 9.69824C0.543213 9.58887 0.6604 9.53418 0.801025 9.53418C0.94165 9.53418 1.05884 9.58887 1.15259 9.69824C1.24634 9.80762 1.29321 9.9248 1.29321 10.0498V14.0342C1.29321 14.7217 1.5354 15.3076 2.01978 15.792C2.50415 16.2764 3.09009 16.5186 3.77759 16.5186H4.29321V4.51855H2.79321C2.66821 4.51855 2.55103 4.47168 2.44165 4.37793C2.33228 4.28418 2.27759 4.16699 2.27759 4.02637C2.27759 3.88574 2.33228 3.76855 2.44165 3.6748C2.55103 3.58105 2.66821 3.53418 2.79321 3.53418H6.44946ZM7.48071 3.53418H13.1057L12.5432 1.89355C12.4807 1.64355 12.3245 1.51855 12.0745 1.51855H8.51196C8.26196 1.51855 8.10571 1.64355 8.04321 1.89355L7.48071 3.53418ZM5.27759 4.51855V16.5186H15.3088V13.0498C15.3088 12.8936 15.3557 12.7686 15.4495 12.6748C15.5432 12.5811 15.6604 12.5342 15.801 12.5342C15.9417 12.5342 16.0588 12.5811 16.1526 12.6748C16.2463 12.7686 16.2932 12.8936 16.2932 13.0498V16.5186H16.8088C17.4963 16.5186 18.0823 16.2764 18.5667 15.792C19.051 15.3076 19.2932 14.7217 19.2932 14.0342V6.20605C19.2932 5.7373 19.137 5.33887 18.8245 5.01074C18.512 4.68262 18.137 4.51855 17.6995 4.51855H16.2932V9.01855C16.2932 9.1748 16.2463 9.2998 16.1526 9.39355C16.0588 9.4873 15.9417 9.53418 15.801 9.53418C15.6604 9.53418 15.5432 9.4873 15.4495 9.39355C15.3557 9.2998 15.3088 9.1748 15.3088 9.01855V4.51855H5.27759Z" fill="#545962"/>
</svg>
