<svg width="23" height="19" viewBox="0 0 23 19" fill="none" xmlns="http://www.w3.org/2000/svg">
<g clip-path="url(#clip0_538_541)">
<path d="M2.8489 0.833984C2.18616 0.833984 1.6489 1.37124 1.6489 2.03398C1.6489 2.69673 2.18616 3.23398 2.8489 3.23398H20.8488C21.5115 3.23398 22.0488 2.69673 22.0488 2.03398C22.0488 1.37124 21.5115 0.833984 20.8488 0.833984H2.8489Z" fill="#343A3D"/>
<path d="M2.8489 7.83398C2.18616 7.83398 1.6489 8.37124 1.6489 9.03398C1.6489 9.69673 2.18616 10.234 2.8489 10.234H20.8488C21.5115 10.234 22.0488 9.69673 22.0488 9.03398C22.0488 8.37124 21.5115 7.83398 20.8488 7.83398H2.8489Z" fill="#343A3D"/>
<path d="M2.8489 14.834C2.18616 14.834 1.6489 15.3713 1.6489 16.034C1.6489 16.6967 2.18616 17.234 2.8489 17.234H20.8488C21.5115 17.234 22.0488 16.6967 22.0488 16.034C22.0488 15.3713 21.5115 14.834 20.8488 14.834H2.8489Z" fill="#343A3D"/>
</g>
<defs>
<clipPath id="clip0_538_541">
<rect width="22" height="18" fill="white" transform="translate(0.848846 0.0341797)"/>
</clipPath>
</defs>
</svg>
