<svg width="17" height="19" viewBox="0 0 17 19" fill="none" xmlns="http://www.w3.org/2000/svg">
<path d="M12.503 0.72168C12.6593 0.78418 12.7608 0.893555 12.8077 1.0498C12.8546 1.20605 12.8312 1.3623 12.7374 1.51855C11.9874 2.51855 11.8624 3.64355 12.3624 4.89355C12.6124 5.4873 13.1905 6.47168 14.0968 7.84668C14.9405 9.09668 15.5265 10.0967 15.8546 10.8467C16.1827 11.5967 16.3468 12.3779 16.3468 13.1904C16.3468 13.6904 16.2843 14.1826 16.1593 14.667C16.0343 15.1514 15.8624 15.6279 15.6437 16.0967C15.4249 16.5654 15.1437 17.0107 14.7999 17.4326C14.4562 17.8545 14.0655 18.2373 13.628 18.5811C13.5343 18.6748 13.4405 18.7217 13.3468 18.7217H2.33116C2.11241 18.7217 1.95616 18.6123 1.86241 18.3936L0.362409 14.3623C0.237409 14.0498 0.331159 13.8389 0.643659 13.7295C0.956159 13.6201 1.17491 13.7217 1.29991 14.0342L2.65928 17.6904H13.1593C14.5968 16.5029 15.3155 15.0029 15.3155 13.1904C15.3155 12.7217 15.2452 12.2607 15.1046 11.8076C14.964 11.3545 14.753 10.8701 14.4718 10.3545C14.1905 9.83887 13.7843 9.19043 13.253 8.40918C12.3155 6.97168 11.7062 5.9248 11.4249 5.26855C10.8937 3.9248 10.9249 2.69043 11.5187 1.56543C10.4874 1.47168 9.48741 1.85449 8.51866 2.71387C7.54991 3.57324 6.86241 4.69043 6.45616 6.06543C6.04991 7.44043 6.04991 8.95605 6.45616 10.6123C6.51866 10.8311 6.58116 11.0342 6.64366 11.2217C6.67491 11.3467 6.67491 11.4561 6.64366 11.5498C6.61241 11.6436 6.55772 11.7217 6.4796 11.7842C6.40147 11.8467 6.29991 11.8779 6.17491 11.8779C4.67491 11.8779 3.51866 10.9404 2.70616 9.06543L1.15928 10.5654C0.940534 10.7842 0.713972 10.7764 0.479597 10.542C0.245222 10.3076 0.253034 10.0811 0.503034 9.8623L2.56553 7.84668C2.69053 7.72168 2.83897 7.68262 3.01085 7.72949C3.18272 7.77637 3.29991 7.87793 3.36241 8.03418C3.89366 9.56543 4.59678 10.4717 5.47178 10.7529C5.03428 9.31543 4.9796 7.9248 5.30772 6.58105C5.63585 5.2373 6.15147 4.07324 6.8546 3.08887C7.55772 2.10449 8.42491 1.38574 9.45616 0.932617C10.4874 0.479492 11.503 0.40918 12.503 0.72168Z" fill="#545962"/>
</svg>
