<svg width="17" height="16" viewBox="0 0 17 16" fill="none" xmlns="http://www.w3.org/2000/svg">
<path d="M9.31885 4.53418H7.3501V6.03418C7.3501 6.31543 7.24854 6.5498 7.04541 6.7373C6.84229 6.9248 6.6001 7.01855 6.31885 7.01855H4.3501C4.1626 7.01855 3.99072 6.97949 3.83447 6.90137C3.67822 6.82324 3.55322 6.70605 3.45947 6.5498C3.36572 6.39355 3.31885 6.22168 3.31885 6.03418V4.53418H1.9126C1.75635 4.53418 1.63135 4.4873 1.5376 4.39355C1.44385 4.2998 1.39697 4.18262 1.39697 4.04199C1.39697 3.90137 1.44385 3.78418 1.5376 3.69043C1.63135 3.59668 1.75635 3.5498 1.9126 3.5498H4.49072L5.14697 1.58105C5.36572 0.893555 5.83447 0.549805 6.55322 0.549805H10.1157C10.8345 0.549805 11.3032 0.893555 11.522 1.58105L12.1782 3.5498H13.6782C14.4282 3.5498 15.061 3.79199 15.5767 4.27637C16.0923 4.76074 16.3501 5.34668 16.3501 6.03418V13.0186C16.3501 13.7061 16.0923 14.2998 15.5767 14.7998C15.061 15.2998 14.4282 15.5498 13.6782 15.5498H2.99072C2.24072 15.5498 1.60791 15.2998 1.09229 14.7998C0.57666 14.2998 0.318848 13.7061 0.318848 13.0186V8.0498C0.318848 7.89355 0.373535 7.76855 0.48291 7.6748C0.592285 7.58105 0.709473 7.53418 0.834473 7.53418C0.959473 7.53418 1.07666 7.58105 1.18604 7.6748C1.29541 7.76855 1.3501 7.89355 1.3501 8.0498V13.0186C1.3501 13.4561 1.50635 13.8154 1.81885 14.0967C2.13135 14.3779 2.52197 14.5186 2.99072 14.5186H13.6782C14.147 14.5186 14.5376 14.3779 14.8501 14.0967C15.1626 13.8154 15.3188 13.4561 15.3188 13.0186V6.03418C15.3188 5.62793 15.1626 5.27637 14.8501 4.97949C14.5376 4.68262 14.147 4.53418 13.6782 4.53418H13.3501V6.03418C13.3501 6.31543 13.2485 6.5498 13.0454 6.7373C12.8423 6.9248 12.6001 7.01855 12.3188 7.01855H10.3501C10.1626 7.01855 9.99072 6.97949 9.83447 6.90137C9.67822 6.82324 9.55322 6.70605 9.45947 6.5498C9.36572 6.39355 9.31885 6.22168 9.31885 6.03418V4.53418ZM10.3501 4.53418V6.03418H12.3188V4.53418H10.3501ZM6.31885 4.53418H4.3501V6.03418H6.31885V4.53418ZM5.52197 3.5498H11.147L10.5845 1.8623C10.522 1.64355 10.3657 1.53418 10.1157 1.53418H6.55322C6.30322 1.53418 6.14697 1.64355 6.08447 1.8623L5.52197 3.5498ZM7.81885 10.5342H6.31885C6.2251 10.5342 6.14697 10.5107 6.08447 10.4639C6.02197 10.417 5.96729 10.3545 5.92041 10.2764C5.87354 10.1982 5.8501 10.1123 5.8501 10.0186C5.8501 9.89355 5.89697 9.78418 5.99072 9.69043C6.08447 9.59668 6.19385 9.5498 6.31885 9.5498H7.81885V8.0498C7.81885 7.89355 7.87354 7.76855 7.98291 7.6748C8.09229 7.58105 8.20947 7.53418 8.33447 7.53418C8.42822 7.53418 8.51416 7.55762 8.59229 7.60449C8.67041 7.65137 8.73291 7.71387 8.77979 7.79199C8.82666 7.87012 8.8501 7.95605 8.8501 8.0498V9.5498H10.3501C10.4751 9.5498 10.5845 9.59668 10.6782 9.69043C10.772 9.78418 10.8188 9.89355 10.8188 10.0186C10.8188 10.1123 10.7954 10.1982 10.7485 10.2764C10.7017 10.3545 10.647 10.417 10.5845 10.4639C10.522 10.5107 10.4438 10.5342 10.3501 10.5342H8.8501V12.0342C8.8501 12.1592 8.79541 12.2764 8.68604 12.3857C8.57666 12.4951 8.45947 12.5498 8.33447 12.5498C8.20947 12.5498 8.09229 12.4951 7.98291 12.3857C7.87354 12.2764 7.81885 12.1592 7.81885 12.0342V10.5342Z" fill="#545962"/>
</svg>
