<svg width="100" height="112" viewBox="0 0 100 112" fill="none" xmlns="http://www.w3.org/2000/svg">
    <path fill-rule="evenodd" clip-rule="evenodd" d="m62.542 53.94-31.168-2.065-2.272-.1c-1.582-.071-2.941 1.105-3.036 2.626-.08 1.287.778 2.443 2.066 2.785l.961.33 13.743 4.646" fill="#fff"/>
    <path fill-rule="evenodd" clip-rule="evenodd" d="m49.693 76.31-4.008 1.699c-6.992 2.96-14.304 6.05-21.936 9.27-2.052 1.079-5.677 1.717-8.099.705-2.421-1.01-10.982-8.15-12.245-10.062-1.263-1.912-1.154-4.682 2.038-5.388 3.748.059 12.942 1.316 13.667 1.189.725-.128 25.482-11.312 55.304-24.462 2.02-1.005 3.97-1.696 5.605-2.31 4.177-1.566 8.295.584 11.688 2.862 3.393 2.277 1.684 6.103-2.996 8.431-8.933 4.446-14.487 6.86-20.04 9.274-2.85 4.756-8.394 14.485-16.636 29.187-.743 1.325-2.437 1.815-3.784 1.096a2.694 2.694 0 0 1-1.368-2.997l2.72-11.56" fill="#fff"/>
    <path d="m62.542 53.94-31.168-2.065-2.272-.1c-1.582-.071-2.941 1.105-3.036 2.626-.08 1.287.778 2.443 2.066 2.785l.961.33 4.26 1.465" stroke="#270570" stroke-width="3" stroke-linecap="round"/>
    <path fill-rule="evenodd" clip-rule="evenodd" d="M6.048 77.885c-1.3-1.398-1.766-1.543-1.317-2.792.086-.24.434-.547.954-.547 2.87 0 10.632.959 12.917 1.171a2.942 2.942 0 0 0 1.126-.1c.431-.158 2.632-1.072 2.632-1.072l15.15 4.738s-14.97 6.373-15.857 6.689c-.887.315-3.132.853-5.043.243s-9.26-6.932-10.562-8.33z" fill="#CBF6EC"/>
    <path d="m75.748 55.594 4.844-2.253M24.265 110.119h10.689M42.971 110.119h24.16" stroke="#270570" stroke-width="3" stroke-linecap="round"/>
    <path d="m49.693 76.31-4.008 1.699c-6.992 2.96-14.304 6.05-21.936 9.27-2.052 1.079-5.677 1.717-8.099.705-2.421-1.01-10.982-8.15-12.245-10.062-1.263-1.912-1.154-4.682 2.038-5.388 3.748.059 12.942 1.316 13.667 1.189.725-.128 25.482-11.312 55.304-24.462 2.02-1.005 3.97-1.696 5.605-2.31 4.177-1.566 8.295.584 11.688 2.862 3.393 2.277 1.684 6.103-2.996 8.431-8.933 4.446-14.487 6.86-20.04 9.274-2.85 4.756-8.394 14.485-16.636 29.187-.743 1.325-2.437 1.815-3.784 1.096a2.694 2.694 0 0 1-1.368-2.997l2.72-11.56" stroke="#270570" stroke-width="3" stroke-linecap="round" stroke-linejoin="round"/>
    <path d="M76.823 37.511h-7.407l-6.67 7.639-6.473-7.639h-9.116c-2.46 0-4.453-1.873-4.453-4.183V6.85c0-2.311 1.994-4.184 4.453-4.184h31.178c2.46 0 4.454 1.873 4.454 4.184v27.393a3.269 3.269 0 0 1-3.27 3.268h-2.696z" fill="#FFE3E0"/>
    <path d="M76.823 37.511h-7.407l-6.67 7.639-6.473-7.639h-9.116c-2.46 0-4.453-1.873-4.453-4.183V6.85c0-2.311 1.994-4.184 4.453-4.184h31.178c2.46 0 4.454 1.873 4.454 4.184v18.88" stroke="#270570" stroke-width="3" stroke-linecap="round" stroke-linejoin="round"/>
    <path fill-rule="evenodd" clip-rule="evenodd" d="M68.247 14.145c-.512-.928-1.47-1.552-2.566-1.552-1.097 0-2.055.624-2.567 1.552H53.21c-.474 0-.864.356-.864.78v1.543c0 .425.39.781.864.781h9.903c.512.928 1.47 1.552 2.567 1.552 1.096 0 2.054-.624 2.566-1.552h3.977c.474 0 .864-.356.864-.78v-1.544c0-.424-.39-.78-.864-.78h-3.977zm-5.926 9.312c-.512-.928-1.47-1.552-2.566-1.552-1.097 0-2.055.624-2.567 1.552H53.21c-.474 0-.864.356-.864.78v1.544c0 .424.39.78.864.78h3.977c.512.928 1.47 1.552 2.566 1.552 1.097 0 2.055-.624 2.567-1.552h9.903c.474 0 .864-.356.864-.78v-1.543c0-.425-.39-.78-.864-.78h-9.903z" fill="#270570"/>
</svg>
