<svg width="23" height="17" viewBox="0 0 23 17" fill="none" xmlns="http://www.w3.org/2000/svg">
<path d="M20.9651 10.5498C21.4338 10.0811 21.6838 9.81543 21.7151 9.75293C21.9338 9.53418 21.9338 9.2998 21.7151 9.0498L20.2151 7.5498H13.6057C13.387 7.5498 13.2463 7.44043 13.1838 7.22168L10.9807 1.78418C10.887 1.62793 10.762 1.5498 10.6057 1.5498H10.2776C9.99634 1.5498 9.85571 1.6748 9.85571 1.9248V7.03418C9.85571 7.15918 9.80103 7.27637 9.69165 7.38574C9.58228 7.49512 9.46509 7.5498 9.34009 7.5498H4.37134C4.21509 7.5498 4.09009 7.4873 3.99634 7.3623L2.73071 5.72168C2.63696 5.59668 2.51196 5.53418 2.35571 5.53418H1.32446C1.19946 5.53418 1.08228 5.4873 0.9729 5.39355C0.863525 5.2998 0.808838 5.18262 0.808838 5.04199C0.808838 4.90137 0.863525 4.78418 0.9729 4.69043C1.08228 4.59668 1.19946 4.5498 1.32446 4.5498H2.35571C2.85571 4.5498 3.24634 4.7373 3.52759 5.1123L4.65259 6.51855H8.82446V1.9248C8.82446 1.5498 8.96509 1.22168 9.24634 0.94043C9.52759 0.65918 9.87134 0.518555 10.2776 0.518555H10.6057C11.1995 0.518555 11.6213 0.799805 11.8713 1.3623L13.9807 6.51855H20.3557C20.512 6.51855 20.6526 6.58105 20.7776 6.70605L22.4182 8.34668C22.6995 8.65918 22.8401 9.01855 22.8401 9.4248C22.8401 9.83105 22.6995 10.1748 22.4182 10.4561L21.5745 11.3467C21.5432 11.3467 21.5276 11.3467 21.5276 11.3467C21.4338 11.4717 21.3088 11.5342 21.1526 11.5342H14.2151L11.8713 15.7529C11.6213 16.2529 11.2151 16.5186 10.6526 16.5498H10.2776C10.2776 16.5498 10.262 16.5498 10.2307 16.5498C9.85571 16.5498 9.52759 16.4092 9.24634 16.1279C8.96509 15.8467 8.82446 15.5186 8.82446 15.1436V11.5342H3.34009C2.84009 11.5342 2.43384 11.3311 2.12134 10.9248L0.949463 9.33105C0.761963 9.08105 0.801025 8.85449 1.06665 8.65137C1.33228 8.44824 1.55884 8.4873 1.74634 8.76855L2.96509 10.3154C3.05884 10.4717 3.18384 10.5498 3.34009 10.5498H9.34009C9.46509 10.5498 9.58228 10.5967 9.69165 10.6904C9.80103 10.7842 9.85571 10.8936 9.85571 11.0186V15.1436C9.85571 15.4248 9.99634 15.5654 10.2776 15.5654L10.6526 15.5186C10.8088 15.5186 10.9182 15.4404 10.9807 15.2842L13.4651 10.7842C13.5588 10.6279 13.6995 10.5498 13.887 10.5498H20.9651Z" fill="white"/>
</svg>
