<svg width="23" height="20" viewBox="0 0 23 20" fill="none" xmlns="http://www.w3.org/2000/svg">
<path d="M8.95135 6.53425L11.5764 0.72175C11.7014 0.4405 11.9123 0.245188 12.2092 0.135813C12.506 0.0264378 12.7951 0.0342503 13.0764 0.15925C13.3264 0.253 13.5139 0.424875 13.6389 0.674875L14.8107 3.20613C14.967 3.51863 14.8889 3.74519 14.5764 3.88581C14.2639 4.02644 14.0451 3.9405 13.9201 3.628L12.7014 1.09675C12.7014 1.0655 12.6857 1.04988 12.6545 1.04988C12.592 1.01863 12.5295 1.03425 12.467 1.09675L9.70135 7.23738C9.6076 7.42488 9.45135 7.51863 9.2326 7.51863H0.607605C0.482605 7.51863 0.37323 7.47175 0.27948 7.378C0.18573 7.28425 0.138855 7.16706 0.138855 7.02644C0.138855 6.88581 0.18573 6.76863 0.27948 6.67488C0.37323 6.58113 0.482605 6.53425 0.607605 6.53425H8.95135ZM12.6076 16.2843L7.07635 18.9093C6.7951 19.0655 6.51385 19.0889 6.2326 18.9796C5.95135 18.8702 5.7326 18.6749 5.57635 18.3936C5.4826 18.1436 5.46698 17.8936 5.52948 17.6436L5.76385 16.6124C5.8576 16.2686 6.06073 16.1358 6.37323 16.2139C6.68573 16.2921 6.81073 16.503 6.74823 16.8468L6.46698 17.878C6.46698 17.9093 6.4826 17.9405 6.51385 17.9718C6.5451 18.0343 6.59198 18.0499 6.65448 18.0186L12.3732 15.2999C12.5295 15.2374 12.6701 15.2374 12.7951 15.2999L18.5139 18.0186C18.5451 18.0499 18.5764 18.0499 18.6076 18.0186C18.7014 18.0186 18.7326 17.9718 18.7014 17.878L17.2951 12.1593C17.2326 11.9718 17.2639 11.8155 17.3889 11.6905L21.6076 7.1905C21.6389 7.15925 21.6545 7.128 21.6545 7.09675C21.6545 7.003 21.6076 6.95613 21.5139 6.95613H15.5139C15.3576 6.95613 15.2326 6.90925 15.1389 6.8155C15.0451 6.72175 14.9982 6.60456 14.9982 6.46394C14.9982 6.32331 15.0451 6.20613 15.1389 6.11238C15.2326 6.01863 15.3576 5.97175 15.5139 5.97175H21.5139C21.8264 5.97175 22.092 6.08113 22.3107 6.29988C22.5295 6.51863 22.6389 6.78425 22.6389 7.09675C22.6389 7.378 22.5451 7.628 22.3576 7.84675L18.3264 12.2061L19.6857 17.6436C19.7482 17.9561 19.7014 18.2452 19.5451 18.5108C19.3889 18.7764 19.1545 18.9405 18.842 19.003C18.592 19.0655 18.342 19.0343 18.092 18.9093L12.6076 16.2843ZM1.63885 10.5186C1.4826 10.5186 1.3576 10.4718 1.26385 10.378C1.1701 10.2843 1.12323 10.1671 1.12323 10.0264C1.12323 9.88581 1.1701 9.76863 1.26385 9.67488C1.3576 9.58113 1.4826 9.53425 1.63885 9.53425H12.6076C12.7639 9.53425 12.8889 9.58113 12.9826 9.67488C13.0764 9.76863 13.1232 9.88581 13.1232 10.0264C13.1232 10.1671 13.0764 10.2843 12.9826 10.378C12.8889 10.4718 12.7639 10.5186 12.6076 10.5186H1.63885ZM3.6076 13.5186C3.4826 13.5186 3.37323 13.4718 3.27948 13.378C3.18573 13.2843 3.13885 13.1749 3.13885 13.0499C3.13885 12.9561 3.16229 12.8702 3.20917 12.7921C3.25604 12.7139 3.31073 12.6514 3.37323 12.6046C3.43573 12.5577 3.51385 12.5343 3.6076 12.5343H11.2014C11.3264 12.5343 11.4357 12.5811 11.5295 12.6749C11.6232 12.7686 11.6701 12.8858 11.6701 13.0264C11.6701 13.1671 11.6232 13.2843 11.5295 13.378C11.4357 13.4718 11.3264 13.5186 11.2014 13.5186H3.6076Z" fill="#545962"/>
</svg>
