<svg width="21" height="21" viewBox="0 0 21 21" fill="none" xmlns="http://www.w3.org/2000/svg">
<g clip-path="url(#clip0_538_502)">
<path d="M6.49823 9.28418V13.4639C6.49823 13.9066 6.33547 14.2907 6.00995 14.6162C5.68443 14.9417 5.28729 15.1045 4.81854 15.1045H3.99823C3.52948 15.1045 3.09328 15.0199 2.68964 14.8506C2.28599 14.6813 1.93443 14.4469 1.63495 14.1475C1.33547 13.848 1.09458 13.4899 0.912292 13.0732C0.730001 12.6566 0.638855 12.2269 0.638855 11.7842V10.9639C0.638855 10.0264 0.964376 9.2321 1.61542 8.58105C2.26646 7.93001 3.06073 7.60449 3.99823 7.60449H4.81854C5.28729 7.60449 5.68443 7.76725 6.00995 8.09277C6.33547 8.41829 6.49823 8.81543 6.49823 9.28418ZM3.99823 9.28418C3.52948 9.28418 3.13234 9.44694 2.80682 9.77246C2.4813 10.098 2.31854 10.4951 2.31854 10.9639V11.7842C2.31854 12.2529 2.4813 12.6501 2.80682 12.9756C3.13234 13.3011 3.52948 13.4639 3.99823 13.4639H4.81854V9.28418H3.99823ZM13.1389 9.28418C13.1389 8.81543 13.3016 8.41829 13.6271 8.09277C13.9527 7.76725 14.3498 7.60449 14.8185 7.60449H15.6389C16.5764 7.60449 17.3706 7.93001 18.0217 8.58105C18.6727 9.2321 18.9982 10.0264 18.9982 10.9639V11.7842C18.9982 12.6956 18.6727 13.4769 18.0217 14.1279C17.3706 14.779 16.5764 15.1045 15.6389 15.1045H14.8185C14.3498 15.1045 13.9527 14.9417 13.6271 14.6162C13.3016 14.2907 13.1389 13.9066 13.1389 13.4639V9.28418ZM15.6389 9.28418H14.8185V13.4639H15.6389C16.1076 13.4639 16.5047 13.3011 16.8303 12.9756C17.1558 12.6501 17.3185 12.2529 17.3185 11.7842V10.9639C17.3185 10.4951 17.1558 10.098 16.8303 9.77246C16.5047 9.44694 16.1076 9.28418 15.6389 9.28418ZM13.7443 4.51855C13.7443 4.51855 13.4741 4.27116 12.9338 3.77637C12.3934 3.28158 11.355 3.03418 9.81854 3.03418C8.28208 3.03418 6.97349 3.52897 5.89276 4.51855C4.81203 5.50814 4.18052 6.84928 3.99823 8.54199C3.97219 8.77637 3.87453 8.96517 3.70526 9.1084C3.53599 9.25163 3.33417 9.31022 3.09979 9.28418C2.86542 9.25814 2.67662 9.15397 2.53339 8.97168C2.39016 8.78939 2.33156 8.58105 2.3576 8.34668C2.56594 6.2373 3.37323 4.5446 4.77948 3.26855C6.18573 1.99251 7.86542 1.35449 9.81854 1.35449C11.7717 1.35449 13.4514 1.99251 14.8576 3.26855C16.2639 4.5446 17.0711 6.2373 17.2795 8.34668C17.3055 8.50293 17.286 8.65267 17.2209 8.7959C17.1558 8.93913 17.0646 9.0498 16.9474 9.12793C16.8303 9.20605 16.6935 9.25814 16.5373 9.28418C16.3029 9.31022 16.0946 9.25163 15.9123 9.1084C15.73 8.96517 15.6389 8.77637 15.6389 8.54199C15.4566 6.84928 14.8251 5.50814 13.7443 4.51855ZM15.8928 14.1084C15.8928 14.1084 15.9351 14.0661 16.0197 13.9814C16.1044 13.8968 16.2639 13.8545 16.4982 13.8545C16.7326 13.8545 16.9279 13.9391 17.0842 14.1084C17.2404 14.2777 17.3185 14.4795 17.3185 14.7139C17.3185 15.8597 16.9149 16.8363 16.1076 17.6436C15.3003 18.4508 14.3107 18.8545 13.1389 18.8545H11.4982C11.2639 18.8545 11.062 18.7764 10.8928 18.6201C10.7235 18.4639 10.6389 18.2686 10.6389 18.0342C10.6389 17.7998 10.7235 17.6045 10.8928 17.4482C11.062 17.292 11.2639 17.2139 11.4982 17.2139H13.1389C13.842 17.2139 14.4344 16.9665 14.9162 16.4717C15.398 15.9769 15.6389 15.391 15.6389 14.7139C15.6389 14.4795 15.7235 14.2777 15.8928 14.1084ZM8.09979 18.5029C8.09979 18.5029 8.0412 18.4443 7.92401 18.3271C7.80682 18.21 7.74823 17.9756 7.74823 17.624C7.74823 17.2725 7.86542 16.973 8.09979 16.7256C8.33417 16.4782 8.63365 16.3545 8.99823 16.3545H11.4982C11.8368 16.3545 12.1297 16.4782 12.3771 16.7256C12.6245 16.973 12.7482 17.2725 12.7482 17.624C12.7482 17.9756 12.6245 18.2686 12.3771 18.5029C12.1297 18.7373 11.8368 18.8545 11.4982 18.8545H8.99823C8.63365 18.8545 8.33417 18.7373 8.09979 18.5029Z" fill="white"/>
</g>
<defs>
<clipPath id="clip0_538_502">
<rect width="20" height="20" fill="white" transform="matrix(1 0 0 -1 0.638855 20.5342)"/>
</clipPath>
</defs>
</svg>
