<svg width="21" height="15" viewBox="0 0 21 15" fill="none" xmlns="http://www.w3.org/2000/svg">
<path d="M7.30823 1.53418H4.82385C4.69885 1.53418 4.58167 1.4873 4.47229 1.39355C4.36292 1.2998 4.30823 1.18262 4.30823 1.04199C4.30823 0.901367 4.36292 0.78418 4.47229 0.69043C4.58167 0.59668 4.69885 0.549805 4.82385 0.549805H19.8239C19.9489 0.549805 20.0582 0.59668 20.152 0.69043C20.2457 0.78418 20.2926 0.893555 20.2926 1.01855V5.0498C20.2926 5.1748 20.2457 5.29199 20.152 5.40137C20.0582 5.51074 19.9332 5.5498 19.777 5.51855C19.277 5.51855 18.8395 5.59668 18.4645 5.75293C18.0895 5.90918 17.8004 6.13574 17.5973 6.43262C17.3942 6.72949 17.2926 7.09668 17.2926 7.53418C17.2926 8.19043 17.5114 8.69824 17.9489 9.05762C18.3864 9.41699 18.9957 9.58105 19.777 9.5498C19.9332 9.51855 20.0582 9.55762 20.152 9.66699C20.2457 9.77637 20.2926 9.89355 20.2926 10.0186V14.0498C20.2926 14.1748 20.2457 14.2842 20.152 14.3779C20.0582 14.4717 19.9489 14.5186 19.8239 14.5186H0.792603C0.667603 14.5186 0.558228 14.4717 0.464478 14.3779C0.370728 14.2842 0.323853 14.1748 0.323853 14.0498V10.0186C0.323853 9.89355 0.370728 9.77637 0.464478 9.66699C0.558228 9.55762 0.667603 9.50293 0.792603 9.50293C1.32385 9.53418 1.78479 9.46387 2.17542 9.29199C2.56604 9.12012 2.8551 8.88574 3.0426 8.58887C3.2301 8.29199 3.32385 7.94043 3.32385 7.53418C3.32385 6.94043 3.1051 6.46387 2.6676 6.10449C2.2301 5.74512 1.6051 5.56543 0.792603 5.56543C0.667603 5.56543 0.558228 5.51855 0.464478 5.4248C0.370728 5.33105 0.323853 5.20605 0.323853 5.0498V2.0498C0.323853 1.89355 0.370728 1.76855 0.464478 1.6748C0.558228 1.58105 0.675415 1.53418 0.81604 1.53418C0.956665 1.53418 1.07385 1.58105 1.1676 1.6748C1.26135 1.76855 1.30823 1.89355 1.30823 2.0498V4.58105C2.21448 4.64355 2.94104 4.94824 3.48792 5.49512C4.03479 6.04199 4.30823 6.72168 4.30823 7.53418C4.30823 8.34668 4.03479 9.02637 3.48792 9.57324C2.94104 10.1201 2.21448 10.4248 1.30823 10.4873V13.5342H7.30823V9.08105C7.30823 8.9248 7.3551 8.7998 7.44885 8.70605C7.5426 8.6123 7.65979 8.56543 7.80042 8.56543C7.94104 8.56543 8.05823 8.6123 8.15198 8.70605C8.24573 8.7998 8.2926 8.9248 8.2926 9.08105V13.5342H19.3082V10.5342C18.402 10.4717 17.6754 10.167 17.1285 9.62012C16.5817 9.07324 16.3082 8.37793 16.3082 7.53418C16.3082 6.69043 16.5817 5.99512 17.1285 5.44824C17.6754 4.90137 18.402 4.59668 19.3082 4.53418V1.53418H8.2926V4.01855C8.2926 4.1748 8.24573 4.2998 8.15198 4.39355C8.05823 4.4873 7.94104 4.53418 7.80042 4.53418C7.65979 4.53418 7.5426 4.4873 7.44885 4.39355C7.3551 4.2998 7.30823 4.1748 7.30823 4.01855V1.53418Z" fill="#545962"/>
</svg>
