<svg width="33" height="61" viewBox="0 0 33 61" fill="none" xmlns="http://www.w3.org/2000/svg">
<g clip-path="url(#clip0_538_530)">
<path d="M32.5488 30.5342C32.5488 21.6976 25.3854 14.5342 16.5488 14.5342C7.71229 14.5342 0.548843 21.6976 0.548843 30.5342C0.548843 39.3707 7.71229 46.5342 16.5488 46.5342C25.3854 46.5342 32.5488 39.3707 32.5488 30.5342Z" fill="#767E89"/>
<path fill-rule="evenodd" clip-rule="evenodd" d="M16.5488 22.2009C14.2476 22.2009 12.3821 24.0664 12.3821 26.3676C12.3821 28.6688 14.2476 30.5343 16.5488 30.5343C18.85 30.5343 20.7155 28.6688 20.7155 26.3676C20.7155 24.0664 18.85 22.2009 16.5488 22.2009ZM14.0488 26.3676C14.0488 24.9869 15.1681 23.8676 16.5488 23.8676C17.9295 23.8676 19.0488 24.9869 19.0488 26.3676C19.0488 27.7483 17.9295 28.8676 16.5488 28.8676C15.1681 28.8676 14.0488 27.7483 14.0488 26.3676Z" fill="white"/>
<path fill-rule="evenodd" clip-rule="evenodd" d="M16.5488 31.3677C12.1535 31.3677 8.2155 34.1697 8.2155 38.0344C8.2155 38.4946 8.58855 38.8677 9.0488 38.8677H24.0488C24.5091 38.8677 24.8821 38.4946 24.8821 38.0344C24.8821 34.1697 20.9442 31.3677 16.5488 31.3677ZM16.5488 33.0344C20.0146 33.0344 22.5978 34.9574 23.119 37.201H9.9787C10.4998 34.9574 13.0831 33.0344 16.5488 33.0344Z" fill="white"/>
</g>
<defs>
<clipPath id="clip0_538_530">
<rect width="32" height="60" fill="white" transform="translate(0.548843 0.53418)"/>
</clipPath>
</defs>
</svg>
