<svg width="17" height="17" viewBox="0 0 17 17" fill="none" xmlns="http://www.w3.org/2000/svg">
  <path
    d="M6.90948 1.85449C6.67511 1.85449 6.4798 1.93913 6.32355 2.1084C6.1673 2.27767 6.08917 2.47949 6.08917 2.71387V4.35449H11.0892V2.71387C11.0892 2.47949 11.011 2.27767 10.8548 2.1084C10.6985 1.93913 10.5032 1.85449 10.2689 1.85449H6.90948ZM12.7689 4.35449H14.4095C14.748 4.35449 15.0735 4.4196 15.386 4.5498C15.6985 4.68001 15.9655 4.8623 16.1868 5.09668C16.4082 5.33105 16.584 5.59798 16.7142 5.89746C16.8444 6.19694 16.9095 6.51595 16.9095 6.85449V14.3545C16.9095 15.0576 16.6686 15.6501 16.1868 16.1318C15.7051 16.6136 15.1126 16.8545 14.4095 16.8545H2.76886C2.06573 16.8545 1.47329 16.6136 0.991516 16.1318C0.509745 15.6501 0.26886 15.0576 0.26886 14.3545V6.85449C0.26886 6.17741 0.509745 5.59147 0.991516 5.09668C1.47329 4.60189 2.06573 4.35449 2.76886 4.35449H4.40948V2.71387C4.40948 2.01074 4.65688 1.41829 5.15167 0.936523C5.64646 0.454753 6.2324 0.213867 6.90948 0.213867H10.2689C10.9459 0.213867 11.5319 0.454753 12.0267 0.936523C12.5215 1.41829 12.7689 2.01074 12.7689 2.71387V4.35449ZM11.0892 6.03418H6.08917V15.2139H11.0892V6.03418ZM12.7689 15.2139H14.4095C14.6439 15.2139 14.8457 15.1292 15.015 14.96C15.1842 14.7907 15.2689 14.5889 15.2689 14.3545V6.85449C15.2689 6.62012 15.1842 6.4248 15.015 6.26855C14.8457 6.1123 14.6439 6.03418 14.4095 6.03418H12.7689V15.2139ZM4.40948 15.2139V6.03418H2.76886C2.53448 6.03418 2.33266 6.1123 2.16339 6.26855C1.99412 6.4248 1.90948 6.62012 1.90948 6.85449V14.3545C1.90948 14.5889 1.99412 14.7907 2.16339 14.96C2.33266 15.1292 2.53448 15.2139 2.76886 15.2139H4.40948Z"
    fill="#666666" />
</svg>