<svg width="21" height="18" viewBox="0 0 21 18" fill="none" xmlns="http://www.w3.org/2000/svg">
<path d="M5.14697 7.5498C4.86572 7.26855 4.71729 6.93262 4.70166 6.54199C4.68604 6.15137 4.81885 5.7998 5.1001 5.4873C5.13135 5.4873 5.14697 5.47168 5.14697 5.44043L6.64697 3.9873C6.92822 3.6748 7.27197 3.51855 7.67822 3.51855C8.08447 3.51855 8.44385 3.65918 8.75635 3.94043L10.2095 5.44043C10.522 5.72168 10.6782 6.06543 10.6782 6.47168C10.6782 6.87793 10.5376 7.2373 10.2563 7.5498H11.147C10.8657 7.26855 10.7251 6.93262 10.7251 6.54199C10.7251 6.15137 10.8501 5.7998 11.1001 5.4873C11.1313 5.4873 11.147 5.47168 11.147 5.44043L12.647 3.9873C12.9282 3.6748 13.272 3.51855 13.6782 3.51855C14.0845 3.51855 14.4438 3.65918 14.7563 3.94043L16.2095 5.44043C16.522 5.72168 16.6782 6.06543 16.6782 6.47168C16.6782 6.87793 16.5376 7.2373 16.2563 7.5498H17.6626V2.01855C17.6626 1.89355 17.6157 1.78418 17.522 1.69043C17.4282 1.59668 17.3188 1.5498 17.1938 1.5498H4.1626C4.0376 1.5498 3.92822 1.59668 3.83447 1.69043C3.74072 1.78418 3.69385 1.89355 3.69385 2.01855V4.03418C3.69385 4.15918 3.63916 4.27637 3.52979 4.38574C3.42041 4.49512 3.30322 4.5498 3.17822 4.5498C3.05322 4.5498 2.93604 4.49512 2.82666 4.38574C2.71729 4.27637 2.6626 4.15918 2.6626 4.03418V2.01855C2.6626 1.6123 2.81104 1.26074 3.10791 0.963867C3.40479 0.666992 3.75635 0.518555 4.1626 0.518555H17.1938C17.6001 0.518555 17.9517 0.666992 18.2485 0.963867C18.5454 1.26074 18.6938 1.6123 18.6938 2.01855V7.5498H19.1626C19.6001 7.5498 19.9595 7.69043 20.2407 7.97168C20.522 8.25293 20.6626 8.6123 20.6626 9.0498V15.0498C20.6626 15.1748 20.6157 15.2842 20.522 15.3779C20.4282 15.4717 20.3188 15.5186 20.1938 15.5186H18.6938V17.0186C18.6938 17.1748 18.6392 17.2998 18.5298 17.3936C18.4204 17.4873 18.3032 17.5342 18.1782 17.5342C18.0532 17.5342 17.936 17.4873 17.8267 17.3936C17.7173 17.2998 17.6626 17.1748 17.6626 17.0186V15.5186H3.69385V17.0186C3.69385 17.1748 3.63916 17.2998 3.52979 17.3936C3.42041 17.4873 3.30322 17.5342 3.17822 17.5342C3.05322 17.5342 2.93604 17.4873 2.82666 17.3936C2.71729 17.2998 2.6626 17.1748 2.6626 17.0186V15.5186H1.1626C1.0376 15.5186 0.928223 15.4717 0.834473 15.3779C0.740723 15.2842 0.693848 15.1748 0.693848 15.0498V9.0498C0.693848 8.64355 0.834473 8.29199 1.11572 7.99512C1.39697 7.69824 1.75635 7.5498 2.19385 7.5498H5.14697ZM6.64697 7.5498H8.80322C8.83447 7.51855 8.86572 7.4873 8.89697 7.45605C8.99072 7.33105 9.09229 7.22168 9.20166 7.12793C9.31104 7.03418 9.39697 6.96387 9.45947 6.91699C9.52197 6.87012 9.55322 6.84668 9.55322 6.84668C9.77197 6.62793 9.75635 6.39355 9.50635 6.14355L8.05322 4.69043C7.80322 4.44043 7.56885 4.44043 7.3501 4.69043L5.8501 6.14355C5.63135 6.39355 5.64697 6.64355 5.89697 6.89355L6.6001 7.5498C6.6001 7.5498 6.61572 7.5498 6.64697 7.5498ZM14.8032 7.5498C14.8345 7.51855 14.8657 7.4873 14.897 7.45605C14.9907 7.33105 15.0923 7.22168 15.2017 7.12793C15.311 7.03418 15.397 6.96387 15.4595 6.91699C15.522 6.87012 15.5532 6.84668 15.5532 6.84668C15.772 6.62793 15.7563 6.39355 15.5063 6.14355L14.0532 4.69043C13.8032 4.44043 13.5688 4.44043 13.3501 4.69043L11.8501 6.14355C11.6313 6.39355 11.647 6.64355 11.897 6.89355L12.6001 7.5498H14.8032ZM1.67822 10.5498H16.1626C16.3188 10.5498 16.4438 10.5967 16.5376 10.6904C16.6313 10.7842 16.6782 10.9014 16.6782 11.042C16.6782 11.1826 16.6313 11.2998 16.5376 11.3936C16.4438 11.4873 16.3188 11.5342 16.1626 11.5342H1.67822V14.5342H19.6782V9.0498C19.6782 8.89355 19.6313 8.76855 19.5376 8.6748C19.4438 8.58105 19.3188 8.53418 19.1626 8.53418L2.19385 8.58105C2.0376 8.58105 1.9126 8.62793 1.81885 8.72168C1.7251 8.81543 1.67822 8.9248 1.67822 9.0498V10.5498Z" fill="#545962"/>
</svg>
