<svg width="21" height="18" viewBox="0 0 21 18" fill="none" xmlns="http://www.w3.org/2000/svg">
<path d="M4.7403 7.55919C4.17983 6.9966 4.15367 6.08712 4.69357 5.49278C4.71937 5.46486 4.71937 5.46486 4.7461 5.43783L6.22106 3.97091C6.8003 3.39482 7.73404 3.3882 8.32591 3.96045L9.81085 5.43287C10.4052 6.00744 10.4224 6.95424 9.85039 7.55008L10.7298 7.54851C10.1795 6.98515 10.1571 6.08337 10.6936 5.49278C10.7194 5.46486 10.7194 5.46486 10.7461 5.43783L12.2211 3.97091C12.8003 3.39482 13.734 3.3882 14.3259 3.96045L15.8109 5.43287C16.4016 6.00401 16.4222 6.94294 15.8606 7.53936L17.2689 7.53685L17.2689 7.53228V2.03418C17.2689 1.75804 17.045 1.53418 16.7689 1.53418H3.76889C3.49275 1.53418 3.26889 1.75804 3.26889 2.03418V4.03418C3.26889 4.31032 3.04503 4.53418 2.76889 4.53418C2.49275 4.53418 2.26889 4.31032 2.26889 4.03418V2.03418C2.26889 1.20575 2.94046 0.53418 3.76889 0.53418H16.7689C17.5973 0.53418 18.2689 1.20575 18.2689 2.03418V7.53228L18.2689 7.53507L18.7662 7.53418C19.5946 7.53271 20.2674 8.20308 20.2689 9.03151L20.2689 15.0329C20.2689 15.309 20.045 15.5329 19.7689 15.5329H18.2689L18.2689 15.5342V17.0326C18.2689 17.3088 18.045 17.5326 17.7689 17.5326C17.4927 17.5326 17.2689 17.3088 17.2689 17.0326V15.5342L17.2689 15.5329H3.26889L3.26889 15.5342V17.0342C3.26889 17.3103 3.04503 17.5342 2.76889 17.5342C2.49275 17.5342 2.26889 17.3103 2.26889 17.0342V15.5342L2.26889 15.5329H0.76889C0.492748 15.5329 0.26889 15.309 0.26889 15.0329V9.06449C0.26889 8.23711 0.938834 7.56597 1.76622 7.56449L4.7403 7.55919ZM6.22043 7.55655L8.39746 7.55267C8.4225 7.51004 8.45433 7.47044 8.49288 7.43547C8.85461 7.10743 9.12776 6.85883 9.12776 6.85883C9.31969 6.6603 9.31434 6.34376 9.11128 6.1474L7.62634 4.67498C7.43055 4.48571 7.11931 4.48791 6.92623 4.67994L5.45127 6.14687C5.44236 6.15588 5.44236 6.15588 5.43376 6.16518C5.24808 6.36958 5.26326 6.6858 5.46765 6.87148L6.19845 7.53535C6.20604 7.54224 6.21336 7.54931 6.22043 7.55655ZM14.4039 7.54196C14.4279 7.5034 14.4576 7.46749 14.4929 7.43547C14.8546 7.10743 15.1278 6.85883 15.1278 6.85883C15.3197 6.6603 15.3143 6.34376 15.1113 6.1474L13.6263 4.67498C13.4306 4.48571 13.1193 4.48791 12.9262 4.67994L11.4513 6.14687C11.4424 6.15588 11.4424 6.15588 11.4338 6.16518C11.2481 6.36958 11.2633 6.6858 11.4677 6.87148L12.1985 7.53535C12.2023 7.53881 12.206 7.54232 12.2097 7.54587L14.4039 7.54196ZM1.26889 10.5342H15.7689C16.045 10.5342 16.2689 10.758 16.2689 11.0342C16.2689 11.3103 16.045 11.5342 15.7689 11.5342H1.26889V14.5329H19.2689V9.03418C19.2684 8.75715 19.0441 8.53369 18.768 8.53418L1.768 8.56449C1.49221 8.56498 1.26889 8.78869 1.26889 9.06449V10.5342Z" fill="white"/>
</svg>
