<svg width="21" height="17" viewBox="0 0 21 17" fill="none" xmlns="http://www.w3.org/2000/svg">
<g clip-path="url(#clip0_538_691)">
<path d="M0.605148 4.2084V2.37946C0.605148 1.70946 1.12725 1.16577 1.77146 1.16577H18.3862C19.0304 1.16577 19.5525 1.70946 19.5525 2.37946V13.6079L17.4983 15.9026H0.605148V8.90419H4.00989M16.3946 12.7942H12.5599" stroke="#444444" stroke-width="1.05263" stroke-linecap="round" stroke-linejoin="round"/>
<path d="M6.92093 10.7505H4.43935C3.94113 10.7505 3.53725 11.1544 3.53725 11.6526V12.3815C3.53725 12.8798 3.94113 13.2836 4.43935 13.2836H6.92093C7.41915 13.2836 7.82304 12.8798 7.82304 12.3815V11.6526C7.82304 11.1544 7.41915 10.7505 6.92093 10.7505Z" stroke="#444444" stroke-width="1.05263" stroke-linecap="round" stroke-linejoin="round"/>
<path d="M5.75568 11.2832V12.8948" stroke="#444444" stroke-width="1.05263" stroke-linecap="round" stroke-linejoin="round"/>
<path d="M19.3267 8.87939H10.3046" stroke="#444444" stroke-width="0.902105" stroke-linecap="round" stroke-linejoin="round"/>
<path d="M19.5525 4.27417H0.605148" stroke="#444444" stroke-width="1.05263" stroke-linecap="round" stroke-linejoin="round"/>
</g>
<defs>
<clipPath id="clip0_538_691">
<rect width="20" height="16" fill="white" transform="translate(0.0788269 0.53418)"/>
</clipPath>
</defs>
</svg>
