<svg width="23" height="14" viewBox="0 0 23 14" fill="none" xmlns="http://www.w3.org/2000/svg">
<path d="M19.5376 10.5186L21.1782 8.78418C21.397 8.53418 21.397 8.2998 21.1782 8.08105L19.5376 6.39355C19.3501 6.20605 19.0688 5.9248 18.6938 5.5498H16.7251C16.6938 5.5498 16.6782 5.5498 16.6782 5.5498H7.81885C7.69385 5.5498 7.57666 5.49512 7.46729 5.38574C7.35791 5.27637 7.30322 5.15918 7.30322 5.03418C7.30322 4.90918 7.35791 4.79199 7.46729 4.68262C7.57666 4.57324 7.69385 4.51855 7.81885 4.51855H15.647L13.2563 1.70605C13.1626 1.58105 13.0376 1.51855 12.8813 1.51855H4.81885C4.6626 1.51855 4.5376 1.47168 4.44385 1.37793C4.3501 1.28418 4.30322 1.16699 4.30322 1.02637C4.30322 0.885742 4.3501 0.768555 4.44385 0.674805C4.5376 0.581055 4.6626 0.53418 4.81885 0.53418H12.8813C13.3188 0.53418 13.6938 0.706055 14.0063 1.0498L16.9595 4.51855H17.3345C17.3345 4.51855 17.3501 4.51855 17.3813 4.51855H18.8345C18.9907 4.51855 19.1157 4.56543 19.2095 4.65918C19.6782 5.12793 20.022 5.47168 20.2407 5.69043L21.8813 7.37793C22.1626 7.65918 22.3032 8.00293 22.3032 8.40918C22.3032 8.81543 22.1782 9.15918 21.9282 9.44043L20.147 11.3623C20.022 11.5186 19.8657 11.5811 19.6782 11.5498C19.647 11.5498 19.6157 11.5498 19.5845 11.5498H18.272C18.1782 11.9248 18.022 12.2607 17.8032 12.5576C17.5845 12.8545 17.2954 13.0889 16.936 13.2607C16.5767 13.4326 16.2017 13.5186 15.811 13.5186C15.4204 13.5186 15.0532 13.4326 14.7095 13.2607C14.3657 13.0889 14.0767 12.8545 13.8423 12.5576C13.6079 12.2607 13.4438 11.9248 13.3501 11.5498H9.27197C9.17822 11.9248 9.02197 12.2607 8.80322 12.5576C8.58447 12.8545 8.29541 13.0889 7.93604 13.2607C7.57666 13.4326 7.20166 13.5186 6.81104 13.5186C6.42041 13.5186 6.05322 13.4326 5.70947 13.2607C5.36572 13.0889 5.07666 12.8545 4.84229 12.5576C4.60791 12.2607 4.44385 11.9248 4.3501 11.5498H3.13135C2.56885 11.5498 2.14697 11.2686 1.86572 10.7061L0.506348 6.62793C0.381348 6.44043 0.318848 6.22168 0.318848 5.97168C0.318848 5.59668 0.459473 5.26074 0.740723 4.96387C1.02197 4.66699 1.3501 4.51855 1.7251 4.51855H2.2876L2.56885 3.90918C2.7251 3.62793 2.95166 3.55762 3.24854 3.69824C3.54541 3.83887 3.61572 4.06543 3.45947 4.37793L3.0376 5.26855C2.94385 5.45605 2.80322 5.5498 2.61572 5.5498H1.7251C1.63135 5.5498 1.54541 5.59668 1.46729 5.69043C1.38916 5.78418 1.3501 5.87793 1.3501 5.97168C1.3501 6.03418 1.36572 6.12793 1.39697 6.25293L2.75635 10.3311C2.8501 10.4561 2.9751 10.5186 3.13135 10.5186H4.3501C4.4751 9.95605 4.76416 9.4873 5.21729 9.1123C5.67041 8.7373 6.20166 8.5498 6.81104 8.5498C7.42041 8.5498 7.95166 8.7373 8.40479 9.1123C8.85791 9.4873 9.14697 9.95605 9.27197 10.5186H13.3501C13.4751 9.95605 13.7642 9.4873 14.2173 9.1123C14.6704 8.7373 15.2017 8.5498 15.811 8.5498C16.4204 8.5498 16.9517 8.7373 17.4048 9.1123C17.8579 9.4873 18.147 9.95605 18.272 10.5186H19.5376ZM14.7563 12.0889C14.7563 12.0889 14.8267 12.1631 14.9673 12.3115C15.1079 12.46 15.3892 12.5342 15.811 12.5342C16.2329 12.5342 16.5923 12.3857 16.8892 12.0889C17.186 11.792 17.3345 11.4404 17.3345 11.0342C17.3345 10.6279 17.186 10.2764 16.8892 9.97949C16.5923 9.68262 16.2329 9.53418 15.811 9.53418C15.3892 9.53418 15.0376 9.68262 14.7563 9.97949C14.4751 10.2764 14.3345 10.6279 14.3345 11.0342C14.3345 11.4404 14.4751 11.792 14.7563 12.0889ZM5.75635 12.0889C5.75635 12.0889 5.82666 12.1631 5.96729 12.3115C6.10791 12.46 6.38916 12.5342 6.81104 12.5342C7.23291 12.5342 7.59229 12.3857 7.88916 12.0889C8.18604 11.792 8.33447 11.4404 8.33447 11.0342C8.33447 10.6279 8.18604 10.2764 7.88916 9.97949C7.59229 9.68262 7.23291 9.53418 6.81104 9.53418C6.38916 9.53418 6.0376 9.68262 5.75635 9.97949C5.4751 10.2764 5.33447 10.6279 5.33447 11.0342C5.33447 11.4404 5.4751 11.792 5.75635 12.0889Z" fill="#545962"/>
</svg>
