<svg id="Camada_1" data-name="Camada 1" xmlns="http://www.w3.org/2000/svg" viewBox="0 0 1177.54 300"><defs><style>.cls-1,.cls-2{fill:#550fed;}.cls-1{isolation:isolate;opacity:0.3;}</style></defs><path class="cls-1" d="M205.14,150A150,150,0,0,1,74,298.83,151.67,151.67,0,0,1,55.14,300H-88.77V0H55.14A151.67,151.67,0,0,1,74,1.17,150,150,0,0,1,205.14,150Z" transform="translate(88.77)"/><path class="cls-2" d="M60.68,150c0,103.51-87.7,150-149.45,150V0C-27,0,60.68,46.49,60.68,150Z" transform="translate(88.77)"/><path class="cls-2" d="M366.54,49.15H395.7V210.22H366.54V197.93a56.94,56.94,0,0,1-17.12,11.69,48,48,0,0,1-18.62,3.58q-22.51,0-38.95-17.46t-16.41-43.42q0-26.91,15.89-44.11T330,91a49.13,49.13,0,0,1,19.62,4,53.46,53.46,0,0,1,17,11.86Zm-30.65,68.79a29.5,29.5,0,0,0-22.46,9.55q-8.94,9.57-8.94,24.51t9.09,24.78A29.53,29.53,0,0,0,336,186.5q13.74,0,22.78-9.56t9.05-25q0-15.15-9.05-24.56T335.89,117.94Z" transform="translate(88.77)"/><path class="cls-2" d="M538.27,160.55H444.61q2,12.39,10.84,19.7t22.48,7.32A38.9,38.9,0,0,0,506,176.15l24.56,11.53a58,58,0,0,1-22,19.28q-12.81,6.24-30.44,6.24-27.35,0-44.53-17.25t-17.2-43.2q0-26.61,17.15-44.17t43-17.57q27.45,0,44.64,17.57T538.37,155Zm-29.15-23a29.37,29.37,0,0,0-11.39-15.81A33,33,0,0,0,478,115.69a35,35,0,0,0-21.4,6.83q-5.77,4.28-10.7,15.06h63.23Z" transform="translate(88.77)"/><path class="cls-2" d="M675.63,117.51l-24.27,13.35q-6.84-7.16-13.53-9.93a40.69,40.69,0,0,0-15.67-2.78q-16.35,0-26.46,9.75t-10.11,25q0,14.84,9.73,24.21t25.56,9.39q19.57,0,30.48-13.35l23,15.74q-18.71,24.32-52.76,24.31-30.66,0-48-18.15t-17.36-42.51a59.85,59.85,0,0,1,32-53.41A70.31,70.31,0,0,1,622,91q17.29,0,31.08,6.89A58.87,58.87,0,0,1,675.63,117.51Z" transform="translate(88.77)"/><path class="cls-2" d="M746.53,91a61.54,61.54,0,0,1,30.91,8.22A59.31,59.31,0,0,1,800,121.56,60,60,0,0,1,808.15,152,61,61,0,0,1,800,182.77a58.85,58.85,0,0,1-22.27,22.37,61.46,61.46,0,0,1-31.08,8.06A58,58,0,0,1,704,195.42q-17.69-17.79-17.68-43.21,0-27.23,20-45.38Q723.77,91,746.53,91Zm.47,27.45a30,30,0,0,0-22.63,9.46q-9,9.45-9,24.18,0,15.16,8.93,24.57t22.63,9.4a30.22,30.22,0,0,0,22.79-9.51q9.11-9.49,9.09-24.46t-8.93-24.29Q760.9,118.46,747,118.47Z" transform="translate(88.77)"/><path class="cls-2" d="M828.77,49.15h29.15V210.22H828.77Z" transform="translate(88.77)"/><path class="cls-2" d="M972.39,94h29.16V210.22H972.39V197.93a56.86,56.86,0,0,1-17.13,11.69,48,48,0,0,1-18.62,3.58q-22.51,0-38.94-17.46t-16.43-43.42q0-26.91,15.9-44.11T935.79,91a49.14,49.14,0,0,1,19.63,4,53.57,53.57,0,0,1,17,11.86V94Zm-30.65,23.93a29.53,29.53,0,0,0-22.47,9.55q-8.94,9.57-8.94,24.51t9.1,24.78a29.53,29.53,0,0,0,22.41,9.72q13.73,0,22.78-9.56t9-25q0-15.15-9-24.56T941.74,117.94Z" transform="translate(88.77)"/><path class="cls-2" d="M1026.4,94h25v14.63a31.2,31.2,0,0,1,10.78-13.14A26,26,0,0,1,1076.91,91a27.18,27.18,0,0,1,11.86,3l-9.08,25.09c-3.42-1.7-6.23-2.56-8.43-2.56q-6.73,0-11.38,8.33t-4.65,32.68l.11,5.66v47h-28.95V94Z" transform="translate(88.77)"/></svg>