<svg width="22" height="19" viewBox="0 0 22 19" fill="none" xmlns="http://www.w3.org/2000/svg">
<path d="M15.8974 9.44043C15.8662 9.31543 15.8662 9.19043 15.8974 9.06543C15.9287 8.94043 15.999 8.84668 16.1084 8.78418C16.2178 8.72168 16.3349 8.70605 16.4599 8.7373C17.7412 8.9248 18.7724 8.5498 19.5537 7.6123C20.1787 6.89355 20.4131 6.03418 20.2568 5.03418C20.1006 4.03418 19.6084 3.19043 18.7803 2.50293C17.9521 1.81543 17.0303 1.4873 16.0146 1.51855C14.999 1.5498 14.1787 1.9248 13.5537 2.64355C12.8349 3.51855 12.6474 4.53418 12.9912 5.69043C13.0224 5.87793 12.9678 6.04199 12.8271 6.18262C12.6865 6.32324 12.5224 6.3623 12.3349 6.2998C11.8037 6.14355 11.2412 6.06543 10.6474 6.06543C10.1787 6.06543 9.70994 6.12793 9.24119 6.25293C9.11619 6.25293 9.00682 6.22949 8.91307 6.18262C8.81932 6.13574 8.74119 6.05762 8.67869 5.94824C8.61619 5.83887 8.60057 5.7373 8.63182 5.64355C8.94432 4.4873 8.74119 3.4873 8.02244 2.64355C7.42869 1.9248 6.61619 1.5498 5.58494 1.51855C4.55369 1.4873 3.62401 1.81543 2.79588 2.50293C1.96776 3.19043 1.48338 4.03418 1.34276 5.03418C1.20213 6.03418 1.42869 6.89355 2.02244 7.6123C2.74119 8.45605 3.69432 8.83105 4.88182 8.7373C5.06932 8.7373 5.21776 8.81543 5.32713 8.97168C5.43651 9.12793 5.44432 9.28418 5.35057 9.44043C5.00682 10.1904 4.83494 10.9717 4.83494 11.7842C4.83494 13.3779 5.40526 14.7373 6.54588 15.8623C7.68651 16.9873 9.05369 17.5498 10.6474 17.5498C12.2412 17.5498 13.6084 16.9873 14.749 15.8623C15.8896 14.7373 16.4599 13.3779 16.4599 11.7842C16.4599 10.9717 16.2724 10.1904 15.8974 9.44043ZM17.4443 11.7842C17.4443 13.6592 16.7803 15.2529 15.4521 16.5654C14.124 17.8779 12.5224 18.5342 10.6474 18.5342C8.77244 18.5342 7.17088 17.8779 5.84276 16.5654C4.51463 15.2529 3.85057 13.6592 3.85057 11.7842C3.85057 11.0967 3.95994 10.4092 4.17869 9.72168C2.99119 9.62793 2.02244 9.14355 1.27244 8.26855C0.491193 7.33105 0.186505 6.22949 0.35838 4.96387C0.530255 3.69824 1.13182 2.62793 2.16307 1.75293C3.19432 0.87793 4.35838 0.47168 5.65526 0.53418C6.95213 0.59668 7.99119 1.09668 8.77244 2.03418C9.52244 2.90918 9.85057 3.94043 9.75682 5.12793C10.0381 5.09668 10.3349 5.08105 10.6474 5.08105C11.0537 5.08105 11.4599 5.1123 11.8662 5.1748C11.7412 3.95605 12.0537 2.90918 12.8037 2.03418C13.6162 1.09668 14.6709 0.59668 15.9678 0.53418C17.2646 0.47168 18.4287 0.87793 19.4599 1.75293C20.4912 2.62793 21.0928 3.69824 21.2646 4.96387C21.4365 6.22949 21.1318 7.33105 20.3506 8.26855C19.5381 9.2373 18.4599 9.7373 17.1162 9.76855C17.3349 10.4248 17.4443 11.0967 17.4443 11.7842Z" fill="#545962"/>
</svg>
