<svg width="19" height="18" viewBox="0 0 19 18" fill="none" xmlns="http://www.w3.org/2000/svg">
<path d="M9.84384 12.9717C9.84384 12.9717 9.8829 13.0107 9.96103 13.0889C10.0392 13.167 10.0782 13.3167 10.0782 13.5381C10.0782 13.7594 10.0001 13.9482 9.84384 14.1045C9.68759 14.2607 9.49879 14.3389 9.27744 14.3389C9.05608 14.3389 8.86728 14.2607 8.71103 14.1045C8.55478 13.9482 8.47665 13.7594 8.47665 13.5381C8.47665 13.3167 8.55478 13.1279 8.71103 12.9717C8.86728 12.8154 9.05608 12.7373 9.27744 12.7373C9.49879 12.7373 9.68759 12.8154 9.84384 12.9717ZM7.6954 7.54199C7.6954 7.6722 7.65634 7.80241 7.57822 7.93262C7.50009 8.06283 7.40244 8.16048 7.28525 8.22559C7.16806 8.29069 7.03134 8.32324 6.87509 8.32324C6.66676 8.32324 6.48447 8.24512 6.32822 8.08887C6.17197 7.93262 6.09384 7.75033 6.09384 7.54199C6.09384 6.65658 6.40634 5.90137 7.03134 5.27637C7.65634 4.65137 8.41155 4.33887 9.29697 4.33887C10.1824 4.33887 10.9376 4.65137 11.5626 5.27637C12.1876 5.90137 12.5001 6.65658 12.5001 7.54199C12.5001 8.27116 12.2722 8.9222 11.8165 9.49512C11.3608 10.068 10.7813 10.4456 10.0782 10.6279V11.1357C10.0782 11.292 10.0457 11.4287 9.98056 11.5459C9.91546 11.6631 9.8178 11.7542 9.68759 11.8193C9.55738 11.8844 9.42066 11.917 9.27744 11.917C9.13421 11.917 9.004 11.8844 8.88681 11.8193C8.76962 11.7542 8.67197 11.6631 8.59384 11.5459C8.51572 11.4287 8.47665 11.292 8.47665 11.1357V9.9248C8.47665 9.71647 8.55478 9.53418 8.71103 9.37793C8.86728 9.22168 9.06259 9.14355 9.29697 9.14355C9.73967 9.14355 10.1173 8.9873 10.4298 8.6748C10.7423 8.3623 10.8985 7.9847 10.8985 7.54199C10.8985 7.09928 10.7423 6.72168 10.4298 6.40918C10.1173 6.09668 9.73967 5.94043 9.29697 5.94043C8.85426 5.94043 8.47665 6.09668 8.16415 6.40918C7.85165 6.72168 7.6954 7.09928 7.6954 7.54199ZM3.04697 15.3545C3.04697 15.3545 2.61728 14.9248 1.7579 14.0654C0.898529 13.2061 0.468842 11.5589 0.468842 9.12402C0.468842 6.68913 1.32822 4.6123 3.04697 2.89355C4.76572 1.1748 6.84254 0.31543 9.27744 0.31543C11.7123 0.31543 13.7892 1.1748 15.5079 2.89355C17.2267 4.6123 18.086 6.68913 18.086 9.12402C18.086 11.5589 17.2267 13.6357 15.5079 15.3545C13.7892 17.0732 11.7123 17.9326 9.27744 17.9326C6.84254 17.9326 4.76572 17.0732 3.04697 15.3545ZM9.29697 1.91699C7.29176 1.91699 5.58603 2.62012 4.17978 4.02637C2.77353 5.43262 2.0704 7.13184 2.0704 9.12402C2.0704 11.1162 2.77353 12.8154 4.17978 14.2217C5.58603 15.6279 7.28525 16.3311 9.27744 16.3311C11.2696 16.3311 12.9688 15.6279 14.3751 14.2217C15.7813 12.8154 16.4845 11.1227 16.4845 9.14355C16.4845 8.15397 16.2957 7.21647 15.9181 6.33105C15.5405 5.44564 15.0261 4.68392 14.3751 4.0459C13.724 3.40788 12.9558 2.89355 12.0704 2.50293C11.185 2.1123 10.2605 1.91699 9.29697 1.91699Z" fill="#666666"/>
</svg>
