<svg width="21" height="19" viewBox="0 0 21 19" fill="none" xmlns="http://www.w3.org/2000/svg">
<path d="M10.208 0.674805C10.3018 0.581055 10.4111 0.53418 10.5361 0.53418C10.6611 0.53418 10.7705 0.581055 10.8643 0.674805L19.2549 9.06543C19.3486 9.15918 19.3955 9.26855 19.3955 9.39355V18.0654C19.3955 18.3779 19.2393 18.5342 18.9268 18.5342H2.14551C1.83301 18.5342 1.67676 18.3779 1.67676 18.0654V16.7061C1.67676 16.3936 1.83301 16.2373 2.14551 16.2373C2.45801 16.2373 2.61426 16.3936 2.61426 16.7061V17.5967H18.458V9.62793L10.5361 1.65918L2.61426 9.62793V13.1436C2.61426 13.4561 2.45801 13.6123 2.14551 13.6123C1.83301 13.6123 1.67676 13.4561 1.67676 13.1436V9.39355C1.67676 9.26855 1.72364 9.15918 1.81739 9.06543L10.208 0.674805ZM10.208 4.37793C10.4268 4.15918 10.6455 4.15918 10.8643 4.37793L17.0518 10.3311C17.1768 10.4873 17.2002 10.6592 17.1221 10.8467C17.0439 11.0342 16.8955 11.1279 16.6768 11.1279H8.23926C7.92676 11.1279 7.77051 10.9717 7.77051 10.6592V8.08105L4.72364 10.9873C4.47364 11.2373 4.23926 11.2451 4.02051 11.0107C3.80176 10.7764 3.80176 10.5498 4.02051 10.3311L10.208 4.37793ZM8.70801 7.14355C8.70801 7.20605 8.70801 7.25293 8.70801 7.28418V10.1904H15.5049L10.5361 5.40918L8.70801 7.14355ZM12.3174 6.95605C12.3174 6.64355 12.4736 6.4873 12.7861 6.4873C13.0986 6.4873 13.2549 6.64355 13.2549 6.95605V10.1436C13.2549 10.4561 13.0986 10.6123 12.7861 10.6123C12.4736 10.6123 12.3174 10.4561 12.3174 10.1436V6.95605ZM7.11426 11.1279C6.80176 11.1279 6.64551 10.9717 6.64551 10.6592C6.64551 10.3467 6.80176 10.1904 7.11426 10.1904H9.45801C9.77051 10.1904 9.92676 10.3467 9.92676 10.6592C9.92676 10.9717 9.77051 11.1279 9.45801 11.1279H7.11426ZM10.1143 0.674805C10.333 0.456055 10.5518 0.456055 10.7705 0.674805L20.3799 9.76855C20.6299 9.9873 20.6455 10.2061 20.4268 10.4248C20.208 10.6436 19.9736 10.6436 19.7236 10.4248L10.4424 1.65918L1.34864 10.4248C1.12989 10.6436 0.903326 10.6436 0.668951 10.4248C0.434576 10.2061 0.442389 9.9873 0.692389 9.76855L10.1143 0.674805ZM7.81739 13.5186C7.81739 13.2061 7.97364 13.0498 8.28614 13.0498H12.7861C13.0986 13.0498 13.2549 13.2061 13.2549 13.5186V18.0654C13.2549 18.3779 13.0986 18.5342 12.7861 18.5342H8.28614C7.97364 18.5342 7.81739 18.3779 7.81739 18.0654V13.5186ZM8.75489 13.9873V17.5967H12.3174V13.9873H8.75489Z" fill="#545962"/>
</svg>
