<?xml version="1.0" encoding="utf-8"?>
<!-- Generator: Adobe Illustrator 23.0.4, SVG Export Plug-In . SVG Version: 6.00 Build 0)  -->
<svg version="1.1" id="Layer_1" xmlns="http://www.w3.org/2000/svg" xmlns:xlink="http://www.w3.org/1999/xlink" x="0px" y="0px"
	 viewBox="0 0 1920 1080" style="enable-background:new 0 0 1920 1080;" xml:space="preserve">
<style type="text/css">
	.st0{opacity:0.3;fill:#550FED;}
	.st1{fill:#550FED;}
</style>
<path class="st0" d="M565.5,502.5c0,69.07-51.69,126.08-118.5,134.44c-5.57,0.7-11.24,1.06-17,1.06H300V367h130
	c5.76,0,11.43,0.36,17,1.06C513.81,376.42,565.5,433.43,565.5,502.5z"/>
<path class="st1" d="M435,502.5C435,596,355.78,638,300,638V367C355.78,367,435,409,435,502.5z"/>
<g>
	<path class="st1" d="M711.3,411.4h26.34v145.5H711.3v-11.1c-5.14,4.89-10.3,8.41-15.47,10.56c-5.17,2.15-10.78,3.23-16.82,3.23
		c-13.56,0-25.28-5.26-35.18-15.77C633.95,533.31,629,520.23,629,504.6c0-16.21,4.79-29.49,14.36-39.85
		c9.57-10.36,21.2-15.53,34.89-15.53c6.3,0,12.2,1.19,17.73,3.57c5.53,2.38,10.63,5.95,15.32,10.71V411.4z M683.61,473.54
		c-8.14,0-14.91,2.88-20.29,8.63c-5.38,5.76-8.08,13.14-8.08,22.14c0,9.07,2.74,16.53,8.22,22.38c5.48,5.85,12.23,8.78,20.24,8.78
		c8.27,0,15.13-2.88,20.58-8.63c5.45-5.76,8.17-13.3,8.17-22.62c0-9.13-2.73-16.53-8.17-22.19
		C698.83,476.37,691.94,473.54,683.61,473.54z"/>
	<path class="st1" d="M866.43,512.03h-84.61c1.22,7.46,4.49,13.4,9.79,17.8c5.31,4.41,12.08,6.61,20.31,6.61
		c9.84,0,18.3-3.44,25.37-10.32l22.19,10.42c-5.53,7.85-12.16,13.65-19.88,17.41s-16.88,5.64-27.5,5.64
		c-16.47,0-29.88-5.19-40.23-15.58c-10.36-10.39-15.53-23.4-15.53-39.03c0-16.02,5.16-29.31,15.49-39.9
		c10.32-10.58,23.27-15.87,38.83-15.87c16.53,0,29.97,5.29,40.33,15.87c10.36,10.58,15.53,24.55,15.53,41.92L866.43,512.03z
		 M840.09,491.29c-1.74-5.85-5.17-10.61-10.29-14.28c-5.12-3.67-11.07-5.5-17.83-5.5c-7.34,0-13.79,2.06-19.33,6.17
		c-3.48,2.57-6.7,7.11-9.66,13.6H840.09z"/>
	<path class="st1" d="M990.51,473.15l-21.93,12.06c-4.12-4.31-8.2-7.3-12.22-8.97c-4.03-1.67-8.74-2.51-14.15-2.51
		c-9.85,0-17.82,2.94-23.91,8.81c-6.09,5.88-9.13,13.41-9.13,22.59c0,8.93,2.93,16.22,8.79,21.87c5.86,5.65,13.56,8.48,23.09,8.48
		c11.79,0,20.96-4.02,27.53-12.06l20.77,14.22c-11.26,14.64-27.14,21.96-47.66,21.96c-18.46,0-32.92-5.47-43.37-16.4
		c-10.45-10.93-15.68-23.73-15.68-38.4c0-10.16,2.54-19.52,7.62-28.08c5.08-8.55,12.17-15.28,21.27-20.16
		c9.1-4.89,19.28-7.33,30.54-7.33c10.42,0,19.78,2.07,28.08,6.22C978.45,459.59,985.23,465.5,990.51,473.15z"/>
	<path class="st1" d="M1054.55,449.22c9.91,0,19.22,2.48,27.93,7.43c8.72,4.95,15.52,11.67,20.41,20.16
		c4.89,8.49,7.33,17.66,7.33,27.5c0,9.91-2.46,19.17-7.38,27.79c-4.92,8.62-11.63,15.36-20.12,20.21
		c-8.49,4.86-17.85,7.28-28.08,7.28c-15.05,0-27.9-5.35-38.54-16.06c-10.65-10.71-15.97-23.72-15.97-39.03
		c0-16.4,6.01-30.07,18.04-41C1028.72,453.98,1040.85,449.22,1054.55,449.22z M1054.98,474.02c-8.18,0-15,2.85-20.44,8.54
		c-5.45,5.69-8.17,12.98-8.17,21.85c0,9.13,2.69,16.53,8.07,22.19c5.38,5.66,12.19,8.49,20.44,8.49c8.25,0,15.11-2.86,20.59-8.59
		c5.48-5.72,8.21-13.09,8.21-22.09c0-9-2.69-16.32-8.07-21.95C1070.23,476.83,1063.36,474.02,1054.98,474.02z"/>
	<path class="st1" d="M1128.84,411.4h26.34v145.5h-26.34V411.4z"/>
	<path class="st1" d="M1258.58,451.92h26.34V556.9h-26.34v-11.1c-5.14,4.89-10.3,8.41-15.47,10.56c-5.17,2.15-10.78,3.23-16.82,3.23
		c-13.56,0-25.28-5.26-35.18-15.77c-9.89-10.52-14.84-23.59-14.84-39.22c0-16.21,4.79-29.49,14.36-39.85
		c9.57-10.36,21.2-15.53,34.89-15.53c6.3,0,12.2,1.19,17.73,3.57c5.53,2.38,10.63,5.95,15.32,10.71V451.92z M1230.89,473.54
		c-8.14,0-14.9,2.88-20.29,8.63c-5.39,5.76-8.08,13.14-8.08,22.14c0,9.07,2.74,16.53,8.22,22.38c5.48,5.85,12.23,8.78,20.24,8.78
		c8.27,0,15.13-2.88,20.58-8.63c5.45-5.76,8.17-13.3,8.17-22.62c0-9.13-2.73-16.53-8.17-22.19
		C1246.11,476.37,1239.22,473.54,1230.89,473.54z"/>
	<path class="st1" d="M1307.37,451.92h22.58v13.22c2.44-5.21,5.69-9.17,9.74-11.87c4.05-2.7,8.49-4.05,13.31-4.05
		c3.41,0,6.98,0.9,10.71,2.7l-8.2,22.67c-3.09-1.54-5.63-2.32-7.62-2.32c-4.05,0-7.48,2.51-10.28,7.53
		c-2.8,5.02-4.2,14.86-4.2,29.52l0.1,5.11v42.45h-26.15V451.92z"/>
</g>
</svg>
