<svg width="23" height="14" viewBox="0 0 23 14" fill="none" xmlns="http://www.w3.org/2000/svg">
<path d="M19.8432 6.5498H18.8589H12.8589V8.09668C12.8589 8.19043 12.8354 8.27637 12.7885 8.35449C12.7417 8.43262 12.687 8.4873 12.6245 8.51855C12.562 8.5498 12.4839 8.56543 12.3901 8.56543C12.2964 8.56543 12.2104 8.5498 12.1323 8.51855C12.0542 8.4873 11.9917 8.43262 11.9448 8.35449C11.8979 8.27637 11.8745 8.19043 11.8745 8.09668V1.58105C11.8745 1.58105 11.8745 1.56543 11.8745 1.53418H2.35886C2.23386 1.53418 2.11667 1.4873 2.00729 1.39355C1.89792 1.2998 1.84323 1.18262 1.84323 1.04199C1.84323 0.901367 1.89792 0.78418 2.00729 0.69043C2.11667 0.59668 2.23386 0.549805 2.35886 0.549805H15.9057C16.062 0.549805 16.187 0.612305 16.2807 0.737305L22.562 8.2373C22.8432 8.51855 22.9839 8.8623 22.9839 9.26855C22.9839 9.6748 22.8432 10.0342 22.562 10.3467L21.5307 11.3779C21.437 11.5029 21.312 11.5498 21.1557 11.5186H19.8432C19.7495 11.8936 19.5854 12.2373 19.351 12.5498C19.1167 12.8623 18.8276 13.1045 18.4839 13.2764C18.1401 13.4482 17.7651 13.5342 17.3589 13.5342C16.7651 13.5342 16.2417 13.3467 15.7885 12.9717C15.3354 12.5967 15.0464 12.1123 14.9214 11.5186H8.82761C8.70261 12.1123 8.41354 12.5967 7.96042 12.9717C7.50729 13.3467 6.97604 13.5342 6.36667 13.5342C5.75729 13.5342 5.22604 13.3467 4.77292 12.9717C4.31979 12.5967 4.03073 12.1123 3.90573 11.5186H1.37448C1.24948 11.5186 1.13229 11.4717 1.02292 11.3779C0.913544 11.2842 0.858856 11.1748 0.858856 11.0498L0.905731 6.03418C0.905731 5.90918 0.952606 5.79199 1.04636 5.68262C1.14011 5.57324 1.25729 5.51855 1.39792 5.51855C1.53854 5.51855 1.65573 5.57324 1.74948 5.68262C1.84323 5.79199 1.89011 5.90918 1.89011 6.03418V10.5342H3.90573C4.03073 9.97168 4.31979 9.49512 4.77292 9.10449C5.22604 8.71387 5.75729 8.51855 6.36667 8.51855C6.97604 8.51855 7.50729 8.71387 7.96042 9.10449C8.41354 9.49512 8.70261 9.97168 8.82761 10.5342H14.9214C15.0464 9.97168 15.3354 9.49512 15.7885 9.10449C16.2417 8.71387 16.7729 8.51855 17.3823 8.51855C17.9917 8.51855 18.5229 8.71387 18.976 9.10449C19.4292 9.49512 19.7182 9.97168 19.8432 10.5342H20.9682L21.8589 9.64355C22.0776 9.39355 22.062 9.14355 21.812 8.89355L19.8432 6.5498ZM15.6714 1.53418H12.8589C12.8589 1.56543 12.8589 1.58105 12.8589 1.58105V5.51855H18.8589C18.9214 5.51855 18.9839 5.53418 19.0464 5.56543L15.6714 1.53418ZM9.39011 6.5498H7.37448C7.24948 6.5498 7.13229 6.49512 7.02292 6.38574C6.91354 6.27637 6.85886 6.15918 6.85886 6.03418C6.85886 5.90918 6.91354 5.79199 7.02292 5.68262C7.13229 5.57324 7.24948 5.51855 7.37448 5.51855H9.39011C9.51511 5.51855 9.62448 5.57324 9.71823 5.68262C9.81198 5.79199 9.85886 5.90918 9.85886 6.03418C9.85886 6.12793 9.83542 6.21387 9.78854 6.29199C9.74167 6.37012 9.68698 6.43262 9.62448 6.47949C9.56198 6.52637 9.48386 6.5498 9.39011 6.5498ZM16.3042 12.1045C16.3042 12.1045 16.3784 12.1787 16.5268 12.3271C16.6753 12.4756 16.9604 12.5498 17.3823 12.5498C17.8042 12.5498 18.1557 12.4014 18.437 12.1045C18.7182 11.8076 18.8589 11.4482 18.8589 11.0264C18.8589 10.6045 18.7182 10.2529 18.437 9.97168C18.1557 9.69043 17.8042 9.5498 17.3823 9.5498C16.9604 9.5498 16.601 9.69043 16.3042 9.97168C16.0073 10.2529 15.8589 10.6045 15.8589 11.0264C15.8589 11.4482 16.0073 11.8076 16.3042 12.1045ZM5.31198 12.1045C5.31198 12.1045 5.38229 12.1787 5.52292 12.3271C5.66354 12.4756 5.94479 12.5498 6.36667 12.5498C6.78854 12.5498 7.14792 12.4014 7.44479 12.1045C7.74167 11.8076 7.89011 11.4482 7.89011 11.0264C7.89011 10.6045 7.74167 10.2529 7.44479 9.97168C7.14792 9.69043 6.78854 9.5498 6.36667 9.5498C5.94479 9.5498 5.59323 9.69043 5.31198 9.97168C5.03073 10.2529 4.89011 10.6045 4.89011 11.0264C4.89011 11.4482 5.03073 11.8076 5.31198 12.1045Z" fill="#545962"/>
</svg>
